<svg width="419.000000" height="40.000000" viewBox="0 0 419 40" fill="none" xmlns="http://www.w3.org/2000/svg" xmlns:xlink="http://www.w3.org/1999/xlink">
	<desc>
			Created with Pixso.
	</desc>
	<defs/>
	<rect id="Rectangle 30" x="0.500000" y="0.500000" rx="19.500000" width="181.000000" height="39.000000" stroke="#C4C4C4" stroke-opacity="1.000000" stroke-width="1.000000"/>
	<path id="Polygon 1" d="M150 24L158.66 15.75L141.34 15.75L150 24Z" fill="#000000" fill-opacity="1.000000" fill-rule="evenodd"/>
	<path id="Фильтрация" d="M36.45 20.84Q37.09 19.8 37.09 18.38Q37.09 17 36.49 15.99Q36.12 15.38 35.53 14.9Q33.97 13.63 31.16 13.51L31.16 12.38L29.67 12.38L29.67 13.51Q26.83 13.63 25.27 14.89Q24.71 15.35 24.35 15.94Q23.71 16.96 23.71 18.38Q23.71 19.77 24.33 20.79Q24.69 21.38 25.27 21.85Q26.83 23.12 29.67 23.23L29.67 24.41L31.16 24.41L31.16 23.23Q33.99 23.13 35.54 21.87Q36.1 21.42 36.45 20.84ZM25.74 20.18Q25.27 19.43 25.27 18.38Q25.27 17.27 25.78 16.5Q26.02 16.12 26.39 15.82Q27.52 14.91 29.67 14.78L29.67 21.98Q27.55 21.85 26.41 20.93Q26 20.6 25.74 20.18ZM34.42 20.93Q33.3 21.85 31.16 21.98L31.16 14.78Q33.27 14.91 34.41 15.83Q34.84 16.17 35.11 16.62Q35.55 17.36 35.55 18.36Q35.55 19.46 35.06 20.23Q34.8 20.62 34.42 20.93ZM83.36 15.85Q82.48 15.44 81.41 15.44Q80.49 15.44 79.72 15.78Q79.7 15.79 79.68 15.8Q79.32 15.96 79.02 16.2Q78.67 16.48 78.39 16.86L78.39 15.51L76.92 15.51L76.92 27.1L78.45 27.1L78.45 22.71Q78.76 23.11 79.16 23.4Q79.43 23.6 79.74 23.74Q79.77 23.76 79.81 23.78Q80.54 24.09 81.41 24.09Q82.48 24.09 83.36 23.68Q83.49 23.62 83.62 23.55Q84.08 23.29 84.45 22.93Q84.86 22.54 85.15 22.02Q85.17 21.98 85.19 21.94Q85.7 20.98 85.7 19.76Q85.7 18.49 85.16 17.53Q85.15 17.51 85.15 17.5Q84.86 17 84.47 16.61Q84.1 16.24 83.62 15.98Q83.49 15.91 83.36 15.85ZM93.56 16.3Q92.63 15.44 90.87 15.44Q89.84 15.44 88.93 15.72Q88.02 16 87.36 16.52L88 17.67Q88.5 17.26 89.22 17.01Q89.71 16.85 90.21 16.79Q90.45 16.76 90.69 16.76Q91.81 16.76 92.39 17.29Q92.48 17.38 92.56 17.47Q92.96 17.98 92.96 18.81L92.96 19.12L90.53 19.12Q88.76 19.12 87.94 19.8Q87.59 20.09 87.39 20.45Q87.12 20.95 87.12 21.6Q87.12 22.18 87.36 22.65Q87.57 23.07 87.98 23.41Q88.84 24.09 90.26 24.09Q91.23 24.09 91.94 23.78Q92.51 23.53 92.87 23.11Q92.96 23 93.04 22.87L93.04 24L94.5 24L94.5 18.87Q94.5 17.32 93.73 16.47Q93.65 16.38 93.56 16.3ZM40.83 15.51L39.3 15.51L39.3 24L40.71 24L45.89 17.82L45.89 24L47.43 24L47.43 15.51L46.03 15.51L40.83 21.69L40.83 15.51ZM57.68 24L57.68 15.51L51.17 15.51L51.03 18.65Q50.95 20.07 50.85 20.84Q50.75 21.61 50.43 22.17Q50.27 22.45 50.03 22.59Q49.79 22.73 49.47 22.73Q49.3 22.73 49.09 22.68L48.99 23.98Q49.52 24.12 49.94 24.12Q50.47 24.12 50.86 23.89Q51.15 23.73 51.36 23.44Q51.88 22.75 52.1 21.6Q52.32 20.46 52.4 18.75L52.5 16.86L56.15 16.86L56.15 24L57.68 24ZM67.04 19.13Q66.19 18.41 64.58 18.39L62.19 18.38L62.19 15.51L60.66 15.51L60.66 24L64.34 24.01Q66.05 24.03 66.97 23.28Q67.25 23.06 67.45 22.77Q67.89 22.12 67.89 21.16Q67.89 20.21 67.44 19.57Q67.27 19.33 67.04 19.13ZM72.24 16.86L75.35 16.86L75.35 15.51L67.6 15.51L67.6 16.86L70.71 16.86L70.71 24L72.24 24L72.24 16.86ZM106.32 26.03L106.32 22.65L104.98 22.65L104.98 15.51L103.44 15.51L103.44 22.65L98.8 22.65L98.8 15.51L97.27 15.51L97.27 24L104.87 24L104.87 26.03L106.32 26.03ZM109.84 15.51L108.31 15.51L108.31 24L109.71 24L114.9 17.82L114.9 24L116.44 24L116.44 15.51L115.04 15.51L109.84 21.69L109.84 15.51ZM126.21 24L126.21 15.51L122.5 15.51Q120.76 15.51 119.76 16.28Q119.46 16.51 119.25 16.81Q118.77 17.48 118.77 18.49Q118.77 19.37 119.17 19.98Q119.22 20.07 119.28 20.15Q119.31 20.18 119.34 20.22Q119.85 20.83 120.76 21.1L118.69 24L120.34 24L122.2 21.31L124.83 21.31L124.83 24L126.21 24ZM82.5 22.5Q81.95 22.75 81.28 22.75Q80.71 22.75 80.21 22.56Q80.01 22.48 79.83 22.37Q79.54 22.21 79.31 21.99Q79.01 21.7 78.8 21.32Q78.43 20.64 78.43 19.76Q78.43 18.87 78.81 18.2Q79.03 17.8 79.35 17.51Q79.57 17.31 79.83 17.16Q80 17.06 80.17 16.99Q80.69 16.78 81.28 16.78Q81.97 16.78 82.54 17.04Q82.64 17.09 82.75 17.15Q82.98 17.28 83.18 17.45Q83.53 17.76 83.77 18.19Q83.78 18.2 83.78 18.21Q84.15 18.89 84.15 19.76Q84.15 20.61 83.79 21.28Q83.78 21.3 83.77 21.32Q83.54 21.73 83.2 22.04Q83 22.23 82.75 22.37Q82.63 22.44 82.5 22.5ZM120.66 19.59Q120.34 19.2 120.34 18.54Q120.34 17.92 120.63 17.53Q121.15 16.86 122.55 16.86L124.83 16.86L124.83 20.2L122.48 20.2Q121.41 20.2 120.87 19.8Q120.75 19.7 120.66 19.59ZM65.78 22.43Q65.25 22.86 64.21 22.84L62.19 22.83L62.19 19.5L64.21 19.53Q65.28 19.55 65.8 19.93Q65.91 20.01 66 20.11Q66.32 20.49 66.32 21.15Q66.32 21.79 66.01 22.2Q65.91 22.32 65.78 22.43ZM92.03 22.51Q91.39 22.91 90.52 22.91Q89.64 22.91 89.14 22.54Q88.91 22.37 88.79 22.15Q88.64 21.88 88.64 21.53Q88.64 21.12 88.83 20.84Q89.25 20.22 90.6 20.22L92.96 20.22L92.96 21.4Q92.79 21.83 92.5 22.14Q92.3 22.36 92.03 22.51Z" fill="#000000" fill-opacity="1.000000" fill-rule="evenodd"/>
	<rect id="Rectangle 30" x="192.500000" y="0.500000" rx="19.500000" width="226.000000" height="39.000000" stroke="#C4C4C4" stroke-opacity="1.000000" stroke-width="1.000000"/>
	<path id="Polygon 1" d="M387 24L395.66 15.75L378.34 15.75L387 24Z" fill="#000000" fill-opacity="1.000000" fill-rule="evenodd"/>
	<path id="По популярности" d="M226.31 24L226.31 12.8L216.88 12.8L216.88 24L218.05 24L218.05 13.82L225.14 13.82L225.14 24L226.31 24ZM231.48 23.72Q232.3 24.07 233.28 24.07Q234.26 24.07 235.08 23.72Q235.28 23.63 235.47 23.52Q235.96 23.25 236.34 22.87Q236.72 22.48 237 22Q237.09 21.84 237.16 21.68Q237.55 20.82 237.55 19.79Q237.55 18.73 237.15 17.86Q237.08 17.72 237 17.58Q236.72 17.08 236.33 16.7Q235.95 16.33 235.47 16.06Q235.29 15.96 235.1 15.88Q234.27 15.51 233.28 15.51Q232.29 15.51 231.46 15.88Q231.27 15.96 231.09 16.06Q230.63 16.32 230.26 16.67Q229.85 17.06 229.55 17.58Q229.47 17.73 229.39 17.88Q228.99 18.74 228.99 19.79Q228.99 20.81 229.38 21.66Q229.46 21.83 229.55 22Q229.84 22.5 230.25 22.89Q230.62 23.26 231.09 23.52Q231.28 23.63 231.48 23.72ZM256.63 23.72Q257.46 24.07 258.43 24.07Q259.41 24.07 260.23 23.72Q260.43 23.63 260.62 23.52Q261.11 23.25 261.49 22.87Q261.88 22.48 262.15 22Q262.24 21.84 262.32 21.68Q262.71 20.82 262.71 19.79Q262.71 18.73 262.3 17.86Q262.23 17.72 262.15 17.58Q261.87 17.08 261.48 16.7Q261.1 16.33 260.62 16.06Q260.44 15.96 260.25 15.88Q259.42 15.51 258.43 15.51Q257.45 15.51 256.61 15.88Q256.42 15.96 256.24 16.06Q255.78 16.32 255.42 16.67Q255 17.06 254.7 17.58Q254.62 17.73 254.55 17.88Q254.14 18.74 254.14 19.79Q254.14 20.81 254.53 21.66Q254.61 21.83 254.7 22Q254.99 22.5 255.4 22.89Q255.77 23.26 256.24 23.52Q256.43 23.63 256.63 23.72ZM310.35 15.85Q309.56 15.51 308.63 15.51Q307.65 15.51 306.85 15.9Q306.79 15.93 306.73 15.96Q306.39 16.14 306.11 16.38Q305.68 16.74 305.38 17.24L305.38 15.58L304.29 15.58L304.29 27.1L305.43 27.1L305.43 22.41Q305.78 22.96 306.27 23.33Q306.51 23.51 306.78 23.65Q306.82 23.67 306.86 23.69Q307.65 24.07 308.63 24.07Q309.66 24.07 310.51 23.68Q310.64 23.61 310.78 23.54Q311.18 23.31 311.51 23Q311.96 22.59 312.27 22.03Q312.3 21.97 312.33 21.92Q312.82 20.98 312.82 19.79Q312.82 18.64 312.35 17.72Q312.32 17.64 312.27 17.57Q311.97 17.03 311.54 16.62Q311.2 16.29 310.77 16.05Q310.56 15.94 310.35 15.85ZM327.74 23.72Q328.56 24.07 329.54 24.07Q330.51 24.07 331.34 23.72Q331.54 23.63 331.73 23.52Q332.22 23.25 332.6 22.87Q332.98 22.48 333.26 22Q333.35 21.84 333.42 21.68Q333.81 20.82 333.81 19.79Q333.81 18.73 333.4 17.86Q333.33 17.72 333.26 17.58Q332.97 17.08 332.58 16.7Q332.21 16.33 331.73 16.06Q331.55 15.96 331.36 15.88Q330.53 15.51 329.54 15.51Q328.55 15.51 327.72 15.88Q327.53 15.96 327.35 16.06Q326.89 16.32 326.52 16.67Q326.1 17.06 325.81 17.58Q325.72 17.73 325.65 17.88Q325.25 18.74 325.25 19.79Q325.25 20.81 325.63 21.66Q325.71 21.83 325.81 22Q326.1 22.5 326.5 22.89Q326.88 23.26 327.35 23.52Q327.54 23.63 327.74 23.72ZM337.73 23.64Q338.64 24.07 339.76 24.07Q340.83 24.07 341.7 23.65Q342.15 23.43 342.5 23.1Q342.82 22.8 343.06 22.41L342.21 21.83Q341.92 22.27 341.53 22.55Q341.35 22.67 341.15 22.76Q341.04 22.82 340.93 22.86Q340.38 23.07 339.76 23.07Q339.01 23.07 338.38 22.79Q338.24 22.73 338.12 22.66Q337.8 22.48 337.54 22.24Q337.21 21.93 336.98 21.51Q336.58 20.76 336.58 19.79Q336.58 18.86 336.96 18.13Q336.97 18.1 336.98 18.08Q337.23 17.63 337.59 17.3Q337.83 17.08 338.12 16.92Q338.25 16.84 338.4 16.78Q339.02 16.51 339.76 16.51Q340.34 16.51 340.86 16.69Q341.01 16.75 341.15 16.82Q341.36 16.92 341.54 17.05Q341.93 17.33 342.21 17.76L343.06 17.18Q342.81 16.77 342.46 16.45Q342.13 16.15 341.71 15.94Q340.85 15.51 339.76 15.51Q338.65 15.51 337.76 15.95Q337.64 16 337.53 16.06Q337.05 16.33 336.66 16.7Q336.27 17.08 335.98 17.58Q335.9 17.73 335.83 17.88Q335.42 18.74 335.42 19.79Q335.42 20.79 335.79 21.63Q335.88 21.82 335.98 22Q336.28 22.52 336.7 22.92Q337.07 23.27 337.53 23.53Q337.63 23.59 337.73 23.64ZM251.73 24L251.73 15.58L244.18 15.58L244.18 24L245.32 24L245.32 16.59L250.59 16.59L250.59 24L251.73 24ZM272.69 24L272.69 15.58L265.14 15.58L265.14 24L266.28 24L266.28 16.59L271.55 16.59L271.55 24L272.69 24ZM278.87 25L283.08 15.58L281.96 15.58L278.79 22.73L275.62 15.58L274.44 15.58L278.2 23.98L277.83 24.8Q277.48 25.56 277.07 25.88Q276.96 25.97 276.84 26.03Q276.51 26.2 276.08 26.2Q275.66 26.2 275.29 26.06Q274.88 25.9 274.55 25.56L274.02 26.41Q274.15 26.54 274.3 26.65Q274.59 26.86 274.93 26.99Q275.46 27.18 276.07 27.18Q276.83 27.18 277.41 26.86Q277.56 26.78 277.69 26.68Q278.36 26.19 278.87 25ZM291.36 24L291.36 15.58L285.2 15.58L285.06 18.59Q284.98 20.06 284.87 20.96Q284.75 21.85 284.42 22.46Q284.23 22.79 283.95 22.94Q283.72 23.07 283.43 23.07Q283.32 23.07 283.03 23L282.95 23.98Q283.43 24.11 283.76 24.11Q284.21 24.11 284.56 23.92Q285.17 23.59 285.48 22.7Q285.96 21.29 286.08 18.67L286.2 16.59L290.23 16.59L290.23 24L291.36 24ZM301.06 24L301.06 15.58L297.52 15.58Q295.86 15.58 294.9 16.32Q294.6 16.54 294.4 16.83Q293.94 17.48 293.94 18.46Q293.94 19.35 294.35 19.96Q294.41 20.05 294.47 20.12Q294.49 20.16 294.52 20.19Q295.04 20.79 295.97 21.05L293.87 24L295.11 24L297.06 21.21L300.02 21.21L300.02 24L301.06 24ZM316.41 15.58L315.27 15.58L315.27 24L316.41 24L316.41 20.28L321.7 20.28L321.7 24L322.84 24L322.84 15.58L321.7 15.58L321.7 19.31L316.41 19.31L316.41 15.58ZM347.83 16.59L351.01 16.59L351.01 15.58L343.51 15.58L343.51 16.59L346.69 16.59L346.69 24L347.83 24L347.83 16.59ZM353.8 15.58L352.66 15.58L352.66 24L353.68 24L359.28 17.31L359.28 24L360.42 24L360.42 15.58L359.41 15.58L353.8 22.27L353.8 15.58ZM234.66 22.78Q234.04 23.07 233.28 23.07Q232.55 23.07 231.94 22.8Q231.8 22.73 231.67 22.66Q231.42 22.51 231.2 22.33Q230.82 21.99 230.55 21.5Q230.53 21.47 230.52 21.44Q230.14 20.71 230.14 19.79Q230.14 18.86 230.52 18.13Q230.54 18.1 230.55 18.08Q230.82 17.58 231.22 17.24Q231.43 17.06 231.67 16.92Q231.81 16.84 231.96 16.77Q232.56 16.51 233.28 16.51Q234.03 16.51 234.64 16.79Q234.77 16.85 234.89 16.92Q235.15 17.07 235.37 17.27Q235.75 17.6 236 18.08Q236.01 18.09 236.01 18.1Q236.4 18.84 236.4 19.79Q236.4 20.72 236.02 21.46Q236.01 21.48 236 21.5Q235.75 21.97 235.39 22.3Q235.16 22.5 234.89 22.66Q234.78 22.72 234.66 22.78ZM259.81 22.78Q259.19 23.07 258.43 23.07Q257.7 23.07 257.1 22.8Q256.96 22.73 256.82 22.66Q256.57 22.51 256.36 22.33Q255.97 21.99 255.7 21.5Q255.69 21.47 255.67 21.44Q255.3 20.71 255.3 19.79Q255.3 18.86 255.68 18.13Q255.69 18.1 255.7 18.08Q255.97 17.58 256.37 17.24Q256.58 17.06 256.82 16.92Q256.97 16.84 257.11 16.77Q257.72 16.51 258.43 16.51Q259.18 16.51 259.79 16.79Q259.92 16.85 260.04 16.92Q260.31 17.07 260.53 17.27Q260.9 17.6 261.15 18.08Q261.16 18.09 261.17 18.1Q261.55 18.84 261.55 19.79Q261.55 20.72 261.17 21.46Q261.16 21.48 261.15 21.5Q260.91 21.97 260.54 22.3Q260.31 22.5 260.04 22.66Q259.93 22.72 259.81 22.78ZM309.76 22.84Q309.2 23.07 308.55 23.07Q307.82 23.07 307.21 22.8Q307.07 22.73 306.94 22.66Q306.68 22.51 306.47 22.33Q306.08 21.99 305.82 21.5Q305.8 21.47 305.78 21.44Q305.41 20.71 305.41 19.79Q305.41 18.84 305.81 18.1Q305.81 18.09 305.82 18.08Q306.07 17.62 306.44 17.29Q306.67 17.08 306.94 16.92Q307.1 16.83 307.26 16.76Q307.85 16.51 308.55 16.51Q309.16 16.51 309.7 16.71Q309.93 16.8 310.14 16.92Q310.46 17.1 310.71 17.35Q311.04 17.66 311.27 18.08Q311.28 18.11 311.29 18.13Q311.68 18.85 311.68 19.79Q311.68 20.69 311.32 21.42Q311.3 21.46 311.27 21.5Q311.03 21.95 310.68 22.27Q310.44 22.49 310.14 22.66Q309.96 22.77 309.76 22.84ZM330.92 22.78Q330.29 23.07 329.54 23.07Q328.81 23.07 328.2 22.8Q328.06 22.73 327.93 22.66Q327.68 22.51 327.46 22.33Q327.07 21.99 326.81 21.5Q326.79 21.47 326.77 21.44Q326.4 20.71 326.4 19.79Q326.4 18.86 326.78 18.13Q326.79 18.1 326.81 18.08Q327.08 17.58 327.48 17.24Q327.68 17.06 327.93 16.92Q328.07 16.84 328.22 16.77Q328.82 16.51 329.54 16.51Q330.28 16.51 330.9 16.79Q331.02 16.85 331.15 16.92Q331.41 17.07 331.63 17.27Q332.01 17.6 332.26 18.08Q332.26 18.09 332.27 18.1Q332.66 18.84 332.66 19.79Q332.66 20.72 332.28 21.46Q332.27 21.48 332.26 21.5Q332.01 21.97 331.64 22.3Q331.42 22.5 331.15 22.66Q331.03 22.72 330.92 22.78ZM295.44 19.65Q295.09 19.2 295.09 18.49Q295.09 17.78 295.44 17.33Q296.01 16.59 297.55 16.59L300.02 16.59L300.02 20.36L297.48 20.36Q296 20.36 295.44 19.65Z" fill="#000000" fill-opacity="1.000000" fill-rule="evenodd"/>
</svg>
