<svg width="182.000000" height="40.000000" viewBox="0 0 182 40" fill="none" xmlns="http://www.w3.org/2000/svg" xmlns:xlink="http://www.w3.org/1999/xlink">
	<desc>
			Created with Pixso.
	</desc>
	<defs/>
	<rect id="Rectangle 30" x="0.500000" y="0.500000" rx="19.500000" width="181.000000" height="39.000000" stroke="#C4C4C4" stroke-opacity="1.000000" stroke-width="1.000000"/>
	<path id="Polygon 1" d="M150 24L158.66 15.75L141.34 15.75L150 24Z" fill="#000000" fill-opacity="1.000000" fill-rule="evenodd"/>
	<path id="Фильтрация" d="M36.45 20.84Q37.09 19.8 37.09 18.38Q37.09 17 36.49 15.99Q36.12 15.38 35.53 14.9Q33.97 13.63 31.16 13.51L31.16 12.38L29.67 12.38L29.67 13.51Q26.83 13.63 25.27 14.89Q24.71 15.35 24.35 15.94Q23.71 16.96 23.71 18.38Q23.71 19.77 24.33 20.79Q24.69 21.38 25.27 21.85Q26.83 23.12 29.67 23.23L29.67 24.41L31.16 24.41L31.16 23.23Q33.99 23.13 35.54 21.87Q36.1 21.42 36.45 20.84ZM25.74 20.18Q25.27 19.43 25.27 18.38Q25.27 17.27 25.78 16.5Q26.02 16.12 26.39 15.82Q27.52 14.91 29.67 14.78L29.67 21.98Q27.55 21.85 26.41 20.93Q26 20.6 25.74 20.18ZM34.42 20.93Q33.3 21.85 31.16 21.98L31.16 14.78Q33.27 14.91 34.41 15.83Q34.84 16.17 35.11 16.62Q35.55 17.36 35.55 18.36Q35.55 19.46 35.06 20.23Q34.8 20.62 34.42 20.93ZM83.36 15.85Q82.48 15.44 81.41 15.44Q80.49 15.44 79.72 15.78Q79.7 15.79 79.68 15.8Q79.32 15.96 79.02 16.2Q78.67 16.48 78.39 16.86L78.39 15.51L76.92 15.51L76.92 27.1L78.45 27.1L78.45 22.71Q78.76 23.11 79.16 23.4Q79.43 23.6 79.74 23.74Q79.77 23.76 79.81 23.78Q80.54 24.09 81.41 24.09Q82.48 24.09 83.36 23.68Q83.49 23.62 83.62 23.55Q84.08 23.29 84.45 22.93Q84.86 22.54 85.15 22.02Q85.17 21.98 85.19 21.94Q85.7 20.98 85.7 19.76Q85.7 18.49 85.16 17.53Q85.15 17.51 85.15 17.5Q84.86 17 84.47 16.61Q84.1 16.24 83.62 15.98Q83.49 15.91 83.36 15.85ZM93.56 16.3Q92.63 15.44 90.87 15.44Q89.84 15.44 88.93 15.72Q88.02 16 87.36 16.52L88 17.67Q88.5 17.26 89.22 17.01Q89.71 16.85 90.21 16.79Q90.45 16.76 90.69 16.76Q91.81 16.76 92.39 17.29Q92.48 17.38 92.56 17.47Q92.96 17.98 92.96 18.81L92.96 19.12L90.53 19.12Q88.76 19.12 87.94 19.8Q87.59 20.09 87.39 20.45Q87.12 20.95 87.12 21.6Q87.12 22.18 87.36 22.65Q87.57 23.07 87.98 23.41Q88.84 24.09 90.26 24.09Q91.23 24.09 91.94 23.78Q92.51 23.53 92.87 23.11Q92.96 23 93.04 22.87L93.04 24L94.5 24L94.5 18.87Q94.5 17.32 93.73 16.47Q93.65 16.38 93.56 16.3ZM40.83 15.51L39.3 15.51L39.3 24L40.71 24L45.89 17.82L45.89 24L47.43 24L47.43 15.51L46.03 15.51L40.83 21.69L40.83 15.51ZM57.68 24L57.68 15.51L51.17 15.51L51.03 18.65Q50.95 20.07 50.85 20.84Q50.75 21.61 50.43 22.17Q50.27 22.45 50.03 22.59Q49.79 22.73 49.47 22.73Q49.3 22.73 49.09 22.68L48.99 23.98Q49.52 24.12 49.94 24.12Q50.47 24.12 50.86 23.89Q51.15 23.73 51.36 23.44Q51.88 22.75 52.1 21.6Q52.32 20.46 52.4 18.75L52.5 16.86L56.15 16.86L56.15 24L57.68 24ZM67.04 19.13Q66.19 18.41 64.58 18.39L62.19 18.38L62.19 15.51L60.66 15.51L60.66 24L64.34 24.01Q66.05 24.03 66.97 23.28Q67.25 23.06 67.45 22.77Q67.89 22.12 67.89 21.16Q67.89 20.21 67.44 19.57Q67.27 19.33 67.04 19.13ZM72.24 16.86L75.35 16.86L75.35 15.51L67.6 15.51L67.6 16.86L70.71 16.86L70.71 24L72.24 24L72.24 16.86ZM106.32 26.03L106.32 22.65L104.98 22.65L104.98 15.51L103.44 15.51L103.44 22.65L98.8 22.65L98.8 15.51L97.27 15.51L97.27 24L104.87 24L104.87 26.03L106.32 26.03ZM109.84 15.51L108.31 15.51L108.31 24L109.71 24L114.9 17.82L114.9 24L116.44 24L116.44 15.51L115.04 15.51L109.84 21.69L109.84 15.51ZM126.21 24L126.21 15.51L122.5 15.51Q120.76 15.51 119.76 16.28Q119.46 16.51 119.25 16.81Q118.77 17.48 118.77 18.49Q118.77 19.37 119.17 19.98Q119.22 20.07 119.28 20.15Q119.31 20.18 119.34 20.22Q119.85 20.83 120.76 21.1L118.69 24L120.34 24L122.2 21.31L124.83 21.31L124.83 24L126.21 24ZM82.5 22.5Q81.95 22.75 81.28 22.75Q80.71 22.75 80.21 22.56Q80.01 22.48 79.83 22.37Q79.54 22.21 79.31 21.99Q79.01 21.7 78.8 21.32Q78.43 20.64 78.43 19.76Q78.43 18.87 78.81 18.2Q79.03 17.8 79.35 17.51Q79.57 17.31 79.83 17.16Q80 17.06 80.17 16.99Q80.69 16.78 81.28 16.78Q81.97 16.78 82.54 17.04Q82.64 17.09 82.75 17.15Q82.98 17.28 83.18 17.45Q83.53 17.76 83.77 18.19Q83.78 18.2 83.78 18.21Q84.15 18.89 84.15 19.76Q84.15 20.61 83.79 21.28Q83.78 21.3 83.77 21.32Q83.54 21.73 83.2 22.04Q83 22.23 82.75 22.37Q82.63 22.44 82.5 22.5ZM120.66 19.59Q120.34 19.2 120.34 18.54Q120.34 17.92 120.63 17.53Q121.15 16.86 122.55 16.86L124.83 16.86L124.83 20.2L122.48 20.2Q121.41 20.2 120.87 19.8Q120.75 19.7 120.66 19.59ZM65.78 22.43Q65.25 22.86 64.21 22.84L62.19 22.83L62.19 19.5L64.21 19.53Q65.28 19.55 65.8 19.93Q65.91 20.01 66 20.11Q66.32 20.49 66.32 21.15Q66.32 21.79 66.01 22.2Q65.91 22.32 65.78 22.43ZM92.03 22.51Q91.39 22.91 90.52 22.91Q89.64 22.91 89.14 22.54Q88.91 22.37 88.79 22.15Q88.64 21.88 88.64 21.53Q88.64 21.12 88.83 20.84Q89.25 20.22 90.6 20.22L92.96 20.22L92.96 21.4Q92.79 21.83 92.5 22.14Q92.3 22.36 92.03 22.51Z" fill="#000000" fill-opacity="1.000000" fill-rule="evenodd"/>
</svg>
