<svg width="227.000000" height="40.000000" viewBox="0 0 227 40" fill="none" xmlns="http://www.w3.org/2000/svg" xmlns:xlink="http://www.w3.org/1999/xlink">
	<desc>
			Created with Pixso.
	</desc>
	<defs/>
	<rect id="Rectangle 30" x="0.500000" y="0.500000" rx="19.500000" width="226.000000" height="39.000000" stroke="#C4C4C4" stroke-opacity="1.000000" stroke-width="1.000000"/>
	<path id="Polygon 1" d="M195 24L203.66 15.75L186.34 15.75L195 24Z" fill="#000000" fill-opacity="1.000000" fill-rule="evenodd"/>
	<path id="По популярности" d="M34.31 24L34.31 12.8L24.88 12.8L24.88 24L26.05 24L26.05 13.82L33.14 13.82L33.14 24L34.31 24ZM39.48 23.72Q40.3 24.07 41.28 24.07Q42.26 24.07 43.08 23.72Q43.28 23.63 43.47 23.52Q43.96 23.25 44.34 22.87Q44.72 22.48 45 22Q45.09 21.84 45.16 21.68Q45.55 20.82 45.55 19.79Q45.55 18.73 45.15 17.86Q45.08 17.72 45 17.58Q44.72 17.08 44.32 16.7Q43.95 16.33 43.47 16.06Q43.29 15.96 43.1 15.88Q42.27 15.51 41.28 15.51Q40.29 15.51 39.46 15.88Q39.27 15.96 39.09 16.06Q38.63 16.32 38.26 16.67Q37.85 17.06 37.55 17.58Q37.47 17.73 37.39 17.88Q36.99 18.74 36.99 19.79Q36.99 20.81 37.38 21.66Q37.46 21.83 37.55 22Q37.84 22.5 38.25 22.89Q38.62 23.26 39.09 23.52Q39.28 23.63 39.48 23.72ZM64.63 23.72Q65.46 24.07 66.43 24.07Q67.41 24.07 68.23 23.72Q68.43 23.63 68.62 23.52Q69.11 23.25 69.49 22.87Q69.88 22.48 70.15 22Q70.24 21.84 70.32 21.68Q70.71 20.82 70.71 19.79Q70.71 18.73 70.3 17.86Q70.23 17.72 70.15 17.58Q69.87 17.08 69.48 16.7Q69.1 16.33 68.62 16.06Q68.44 15.96 68.25 15.88Q67.42 15.51 66.43 15.51Q65.44 15.51 64.61 15.88Q64.42 15.96 64.24 16.06Q63.78 16.32 63.42 16.67Q63 17.06 62.7 17.58Q62.62 17.73 62.55 17.88Q62.14 18.74 62.14 19.79Q62.14 20.81 62.53 21.66Q62.61 21.83 62.7 22Q62.99 22.5 63.4 22.89Q63.77 23.26 64.24 23.52Q64.43 23.63 64.63 23.72ZM118.35 15.85Q117.56 15.51 116.63 15.51Q115.65 15.51 114.85 15.9Q114.79 15.93 114.73 15.96Q114.39 16.14 114.11 16.38Q113.68 16.74 113.38 17.24L113.38 15.58L112.29 15.58L112.29 27.1L113.43 27.1L113.43 22.41Q113.78 22.96 114.27 23.33Q114.51 23.51 114.78 23.65Q114.82 23.67 114.86 23.69Q115.65 24.07 116.63 24.07Q117.66 24.07 118.51 23.68Q118.64 23.61 118.78 23.54Q119.18 23.31 119.51 23Q119.96 22.59 120.27 22.03Q120.3 21.97 120.33 21.92Q120.82 20.98 120.82 19.79Q120.82 18.64 120.36 17.72Q120.32 17.64 120.27 17.57Q119.97 17.03 119.55 16.62Q119.2 16.29 118.77 16.05Q118.56 15.94 118.35 15.85ZM135.74 23.72Q136.56 24.07 137.54 24.07Q138.51 24.07 139.34 23.72Q139.54 23.63 139.73 23.52Q140.22 23.25 140.6 22.87Q140.98 22.48 141.26 22Q141.35 21.84 141.42 21.68Q141.81 20.82 141.81 19.79Q141.81 18.73 141.4 17.86Q141.33 17.72 141.26 17.58Q140.97 17.08 140.58 16.7Q140.21 16.33 139.73 16.06Q139.55 15.96 139.36 15.88Q138.53 15.51 137.54 15.51Q136.55 15.51 135.72 15.88Q135.53 15.96 135.35 16.06Q134.89 16.32 134.52 16.67Q134.11 17.06 133.81 17.58Q133.72 17.73 133.65 17.88Q133.25 18.74 133.25 19.79Q133.25 20.81 133.63 21.66Q133.71 21.83 133.81 22Q134.1 22.5 134.5 22.89Q134.88 23.26 135.35 23.52Q135.54 23.63 135.74 23.72ZM145.73 23.64Q146.64 24.07 147.76 24.07Q148.83 24.07 149.7 23.65Q150.15 23.43 150.5 23.1Q150.82 22.8 151.06 22.41L150.21 21.83Q149.92 22.27 149.53 22.55Q149.35 22.67 149.15 22.76Q149.04 22.82 148.93 22.86Q148.38 23.07 147.76 23.07Q147 23.07 146.38 22.79Q146.24 22.73 146.12 22.66Q145.8 22.48 145.54 22.24Q145.21 21.93 144.98 21.51Q144.58 20.76 144.58 19.79Q144.58 18.86 144.96 18.13Q144.97 18.1 144.98 18.08Q145.23 17.63 145.59 17.3Q145.83 17.08 146.12 16.92Q146.25 16.84 146.39 16.78Q147.02 16.51 147.76 16.51Q148.34 16.51 148.86 16.69Q149.01 16.75 149.15 16.82Q149.36 16.92 149.54 17.05Q149.93 17.33 150.21 17.76L151.06 17.18Q150.81 16.77 150.46 16.45Q150.13 16.15 149.71 15.94Q148.85 15.51 147.76 15.51Q146.65 15.51 145.75 15.95Q145.64 16 145.53 16.06Q145.05 16.33 144.66 16.7Q144.27 17.08 143.98 17.58Q143.9 17.73 143.83 17.88Q143.42 18.74 143.42 19.79Q143.42 20.79 143.79 21.63Q143.88 21.82 143.98 22Q144.28 22.52 144.7 22.92Q145.07 23.27 145.53 23.53Q145.63 23.59 145.73 23.64ZM59.73 24L59.73 15.58L52.18 15.58L52.18 24L53.32 24L53.32 16.59L58.59 16.59L58.59 24L59.73 24ZM80.69 24L80.69 15.58L73.14 15.58L73.14 24L74.28 24L74.28 16.59L79.55 16.59L79.55 24L80.69 24ZM86.87 25L91.08 15.58L89.96 15.58L86.79 22.73L83.62 15.58L82.44 15.58L86.2 23.98L85.83 24.8Q85.48 25.56 85.06 25.88Q84.96 25.97 84.84 26.03Q84.51 26.2 84.08 26.2Q83.66 26.2 83.29 26.06Q82.88 25.9 82.55 25.56L82.02 26.41Q82.15 26.54 82.3 26.65Q82.59 26.86 82.93 26.99Q83.46 27.18 84.07 27.18Q84.83 27.18 85.41 26.86Q85.56 26.78 85.69 26.68Q86.36 26.19 86.87 25ZM99.36 24L99.36 15.58L93.2 15.58L93.06 18.59Q92.98 20.06 92.87 20.96Q92.75 21.85 92.42 22.46Q92.23 22.79 91.95 22.94Q91.72 23.07 91.43 23.07Q91.32 23.07 91.03 23L90.95 23.98Q91.43 24.11 91.76 24.11Q92.21 24.11 92.56 23.92Q93.17 23.59 93.48 22.7Q93.96 21.29 94.08 18.67L94.2 16.59L98.23 16.59L98.23 24L99.36 24ZM109.06 24L109.06 15.58L105.52 15.58Q103.86 15.58 102.9 16.32Q102.6 16.54 102.4 16.83Q101.94 17.48 101.94 18.46Q101.94 19.35 102.35 19.96Q102.41 20.05 102.47 20.12Q102.49 20.16 102.52 20.19Q103.04 20.79 103.97 21.05L101.87 24L103.11 24L105.06 21.21L108.02 21.21L108.02 24L109.06 24ZM124.41 15.58L123.27 15.58L123.27 24L124.41 24L124.41 20.28L129.7 20.28L129.7 24L130.84 24L130.84 15.58L129.7 15.58L129.7 19.31L124.41 19.31L124.41 15.58ZM155.83 16.59L159.01 16.59L159.01 15.58L151.51 15.58L151.51 16.59L154.69 16.59L154.69 24L155.83 24L155.83 16.59ZM161.8 15.58L160.66 15.58L160.66 24L161.68 24L167.28 17.31L167.28 24L168.42 24L168.42 15.58L167.41 15.58L161.8 22.27L161.8 15.58ZM42.66 22.78Q42.04 23.07 41.28 23.07Q40.55 23.07 39.94 22.8Q39.8 22.73 39.67 22.66Q39.42 22.51 39.2 22.33Q38.81 21.99 38.55 21.5Q38.53 21.47 38.52 21.44Q38.14 20.71 38.14 19.79Q38.14 18.86 38.52 18.13Q38.54 18.1 38.55 18.08Q38.82 17.58 39.22 17.24Q39.43 17.06 39.67 16.92Q39.81 16.84 39.96 16.77Q40.56 16.51 41.28 16.51Q42.03 16.51 42.64 16.79Q42.77 16.85 42.89 16.92Q43.15 17.07 43.37 17.27Q43.75 17.6 44 18.08Q44.01 18.09 44.01 18.1Q44.4 18.84 44.4 19.79Q44.4 20.72 44.02 21.46Q44.01 21.48 44 21.5Q43.75 21.97 43.39 22.3Q43.16 22.5 42.89 22.66Q42.78 22.72 42.66 22.78ZM67.81 22.78Q67.19 23.07 66.43 23.07Q65.7 23.07 65.09 22.8Q64.96 22.73 64.82 22.66Q64.57 22.51 64.36 22.33Q63.97 21.99 63.7 21.5Q63.69 21.47 63.67 21.44Q63.3 20.71 63.3 19.79Q63.3 18.86 63.68 18.13Q63.69 18.1 63.7 18.08Q63.97 17.58 64.37 17.24Q64.58 17.06 64.82 16.92Q64.97 16.84 65.11 16.77Q65.72 16.51 66.43 16.51Q67.18 16.51 67.79 16.79Q67.92 16.85 68.04 16.92Q68.31 17.07 68.53 17.27Q68.9 17.6 69.15 18.08Q69.16 18.09 69.17 18.1Q69.55 18.84 69.55 19.79Q69.55 20.72 69.17 21.46Q69.16 21.48 69.15 21.5Q68.91 21.97 68.54 22.3Q68.31 22.5 68.04 22.66Q67.93 22.72 67.81 22.78ZM117.76 22.84Q117.2 23.07 116.55 23.07Q115.82 23.07 115.21 22.8Q115.07 22.73 114.94 22.66Q114.68 22.51 114.47 22.33Q114.08 21.99 113.82 21.5Q113.8 21.47 113.78 21.44Q113.41 20.71 113.41 19.79Q113.41 18.84 113.81 18.1Q113.81 18.09 113.82 18.08Q114.07 17.62 114.44 17.29Q114.67 17.08 114.94 16.92Q115.1 16.83 115.27 16.76Q115.85 16.51 116.55 16.51Q117.16 16.51 117.7 16.71Q117.93 16.8 118.14 16.92Q118.46 17.1 118.71 17.35Q119.04 17.66 119.27 18.08Q119.28 18.11 119.3 18.13Q119.68 18.85 119.68 19.79Q119.68 20.69 119.32 21.42Q119.3 21.46 119.27 21.5Q119.03 21.95 118.68 22.27Q118.44 22.49 118.14 22.66Q117.96 22.77 117.76 22.84ZM138.92 22.78Q138.29 23.07 137.54 23.07Q136.81 23.07 136.2 22.8Q136.06 22.73 135.93 22.66Q135.67 22.51 135.46 22.33Q135.07 21.99 134.81 21.5Q134.79 21.47 134.77 21.44Q134.4 20.71 134.4 19.79Q134.4 18.86 134.78 18.13Q134.79 18.1 134.81 18.08Q135.08 17.58 135.48 17.24Q135.68 17.06 135.93 16.92Q136.07 16.84 136.22 16.77Q136.82 16.51 137.54 16.51Q138.28 16.51 138.9 16.79Q139.02 16.85 139.15 16.92Q139.41 17.07 139.63 17.27Q140 17.6 140.26 18.08Q140.26 18.09 140.27 18.1Q140.66 18.84 140.66 19.79Q140.66 20.72 140.28 21.46Q140.27 21.48 140.26 21.5Q140.01 21.97 139.64 22.3Q139.42 22.5 139.15 22.66Q139.03 22.72 138.92 22.78ZM103.44 19.65Q103.09 19.2 103.09 18.49Q103.09 17.78 103.44 17.33Q104.01 16.59 105.55 16.59L108.02 16.59L108.02 20.36L105.48 20.36Q104 20.36 103.44 19.65Z" fill="#000000" fill-opacity="1.000000" fill-rule="evenodd"/>
</svg>
